<svg width="22" height="24" viewBox="0 0 22 24" fill="none" xmlns="http://www.w3.org/2000/svg">
    <path
        d="M20.3125 9.60631H13.2812V1.98364C13.2812 1.04828 12.5815 0.289719 11.7188 0.289719H10.1562C9.29346 0.289719 8.59375 1.04828 8.59375 1.98364V9.60631H1.5625C0.699707 9.60631 0 10.3649 0 11.3002V12.9942C0 13.9295 0.699707 14.6881 1.5625 14.6881H8.59375V22.3107C8.59375 23.2461 9.29346 24.0047 10.1562 24.0047H11.7188C12.5815 24.0047 13.2812 23.2461 13.2812 22.3107V14.6881H20.3125C21.1753 14.6881 21.875 13.9295 21.875 12.9942V11.3002C21.875 10.3649 21.1753 9.60631 20.3125 9.60631Z"
        fill="black" />
</svg>